<svg version="1.2" baseProfile="tiny-ps" xmlns="http://www.w3.org/2000/svg" viewBox="0 0 632 149" width="509" height="120"><title>cactus-logotype-blue</title><style>tspan { white-space:pre }.shp0 { fill: #382a55 } </style><path fill-rule="evenodd" class="shp0" d="M230.71 139.21C229.87 150.1 198.07 151.86 197.8 139.21L197.8 137.26C189.76 146.28 178.79 148.96 167.33 148.96C138.32 148.96 115.16 124.59 115.16 94.6C115.16 64.62 138.32 40.24 167.33 40.24C178.79 40.24 189.76 42.92 197.8 51.94L197.8 49.99C198.07 33.51 229.87 37.04 230.71 49.99L230.71 139.21ZM197.8 94.6C197.8 80.46 186.83 70.22 172.69 70.22C159.04 70.22 148.07 80.46 148.07 94.6C148.07 108.74 159.04 118.98 172.69 118.98C186.83 118.98 197.8 108.74 197.8 94.6Z" /><path class="shp0" d="M437.67 99.19L437.67 49.94C438.31 33.46 470.11 33.46 470.33 49.94L470.33 100.16C470.33 105.52 471.55 118.93 487.64 118.93C503.73 118.93 504.95 105.52 504.95 100.16L504.95 49.94C505.44 29.93 537.23 33.46 537.62 49.94L537.62 99.19C537.62 112.35 532.98 148.91 487.4 148.91C442.3 148.91 437.67 112.35 437.67 99.19Z" /><path class="shp0" d="M602.95 73.4C599.97 71.33 595.39 67.54 589.54 67.54C585.39 67.54 579.06 68.28 579.06 73.15C579.06 87.78 631.22 78.76 631.22 116.3C631.22 130.19 616.11 148.96 584.66 148.96C564.19 148.96 552 138.48 546.15 131.17C537.23 114.77 560.2 105.94 568.09 114.59C572.47 119.3 578.24 121.66 585.39 121.66C587.83 121.66 598.31 121.66 598.31 115.81C598.31 100.94 546.15 110.69 546.15 72.91C546.15 57.3 560.77 40.24 589.05 40.24C604.65 40.24 615.62 47.8 621.96 54.38C630.86 63.54 616.72 82.97 602.95 73.4Z" /><path class="shp0" d="M428.89 125.47C428.8 125.34 428.7 125.22 428.58 125.11C424.16 120.93 414.23 120.41 412.47 120.35C412.28 120.34 412.09 120.31 411.91 120.25C405.9 118.35 402.95 114.05 403.05 107.37L403.05 80.33C403.05 77.35 405.47 74.94 408.44 74.94L415.22 74.94C422.07 74.94 427.68 69.34 427.68 62.49L427.68 57.41C427.68 50.57 422.07 44.96 415.22 44.96L408.44 44.96C405.47 44.96 403.05 42.55 403.05 39.58L403.05 11.08C403.05 -1.54 370.39 -5.08 370.39 14.98L370.39 39.58C370.39 42.55 367.98 44.96 365 44.96L361.88 44.96C344.69 44.38 344.69 74.41 362.12 74.94L365 74.94C367.98 74.94 370.39 77.35 370.39 80.33L370.39 107.61C370.3 109.1 370.27 110.52 370.29 111.9C370.29 112.38 370.33 112.81 370.35 113.27C370.38 114.16 370.41 115.05 370.48 115.89C370.52 116.42 370.6 116.9 370.66 117.4C370.75 118.14 370.82 118.89 370.94 119.59C371.02 120.11 371.14 120.58 371.24 121.08C371.37 121.73 371.49 122.39 371.65 123.01C371.78 123.5 371.93 123.95 372.07 124.43C372.24 125.01 372.41 125.6 372.6 126.15C372.76 126.61 372.95 127.04 373.13 127.48C373.33 128 373.54 128.54 373.76 129.03C373.96 129.46 374.18 129.86 374.39 130.27C374.63 130.74 374.86 131.22 375.12 131.67C375.35 132.06 375.6 132.43 375.84 132.8C376.11 133.23 376.38 133.66 376.66 134.06C376.92 134.43 377.19 134.76 377.46 135.1C377.76 135.48 378.05 135.87 378.36 136.23C378.64 136.56 378.94 136.86 379.23 137.17C379.55 137.52 379.87 137.86 380.2 138.19C380.51 138.48 380.82 138.75 381.13 139.03C381.47 139.34 381.81 139.64 382.17 139.93C382.49 140.2 382.82 140.44 383.15 140.69C383.51 140.96 383.87 141.23 384.23 141.48C384.57 141.72 384.92 141.94 385.27 142.16C385.64 142.39 386.01 142.63 386.39 142.85C386.74 143.06 387.1 143.25 387.45 143.44C387.84 143.65 388.22 143.86 388.61 144.05C388.97 144.23 389.33 144.4 389.7 144.56C390.09 144.74 390.48 144.92 390.88 145.08C391.25 145.24 391.62 145.38 391.98 145.52C392.38 145.68 392.78 145.83 393.18 145.97C393.55 146.1 393.92 146.22 394.29 146.34C394.69 146.47 395.09 146.6 395.49 146.71C395.86 146.82 396.23 146.92 396.61 147.02C397 147.13 397.4 147.23 397.79 147.33C398.16 147.42 398.53 147.5 398.9 147.58C399.29 147.67 399.68 147.75 400.07 147.83C400.44 147.9 400.79 147.97 401.15 148.03C401.54 148.1 401.92 148.16 402.31 148.22C402.66 148.27 403.01 148.33 403.36 148.37C403.74 148.43 404.11 148.47 404.48 148.52C404.82 148.56 405.15 148.59 405.49 148.63C405.85 148.67 406.21 148.7 406.57 148.73C406.89 148.76 407.21 148.78 407.53 148.8C407.88 148.83 408.22 148.85 408.56 148.87C408.86 148.88 409.17 148.9 409.47 148.91C409.79 148.92 410.11 148.93 410.43 148.94C410.71 148.95 410.99 148.96 411.27 148.96C411.58 148.96 411.87 148.96 412.16 148.96C412.42 148.96 412.68 148.96 412.93 148.96C413.21 148.96 413.47 148.95 413.73 148.95C413.97 148.94 414.2 148.94 414.43 148.93C414.68 148.92 414.9 148.91 415.13 148.9C415.34 148.89 415.54 148.88 415.74 148.87C415.96 148.86 416.15 148.85 416.35 148.84C416.52 148.82 416.69 148.81 416.84 148.8C417.03 148.79 417.18 148.78 417.34 148.76C417.48 148.75 417.62 148.74 417.74 148.73C417.88 148.72 417.99 148.7 418.11 148.69C418.21 148.68 418.31 148.67 418.39 148.66C418.49 148.65 418.56 148.64 418.64 148.63C418.69 148.63 418.74 148.62 418.78 148.62C418.78 148.62 418.79 148.62 418.8 148.62C418.8 148.61 418.8 148.61 418.8 148.61C418.83 148.61 418.85 148.61 418.89 148.6C418.91 148.6 418.93 148.59 418.94 148.59C418.96 148.59 418.97 148.59 418.98 148.59C419.46 148.49 419.91 148.38 420.36 148.27C420.4 148.27 420.43 148.26 420.46 148.25C428.13 146.36 431.24 142.65 431.24 136.25L431.24 132.7C431.24 129.99 430.37 127.5 428.89 125.47Z" /><path class="shp0" d="M75.86 108.78C72.45 115.36 65.86 119.02 56.6 119.02C43.68 119.02 33.44 108.53 33.44 94.64L33.44 90.5C33.44 76.61 43.68 66.12 56.6 66.12C65.86 66.12 72.45 69.78 75.86 76.37C87.76 91.24 112.49 85.94 109.28 70.25C103.66 48.84 80.48 36.14 57.09 36.14C25.88 36.14 0.78 60.52 0.78 90.5L0.78 94.64C0.78 124.62 25.88 149 57.09 149C80.48 149 103.66 136.3 109.28 114.9C112.49 99.2 87.76 93.9 75.86 108.78Z" /><path class="shp0" d="M314.33 108.78C310.92 115.36 304.34 119.02 295.07 119.02C282.15 119.02 271.92 108.53 271.92 94.64L271.92 90.5C271.92 76.61 282.15 66.12 295.07 66.12C304.34 66.12 310.92 69.78 314.33 76.37C326.23 91.24 350.96 85.94 347.75 70.25C342.13 48.84 318.96 36.14 295.56 36.14C264.36 36.14 239.25 60.52 239.25 90.5L239.25 94.64C239.25 124.62 264.36 149 295.56 149C318.96 149 342.13 136.3 347.75 114.9C350.96 99.2 326.23 93.9 314.33 108.78Z" /></svg>